<?xml version="1.0" standalone="no"?>
<!DOCTYPE svg PUBLIC "-//W3C//DTD SVG 20010904//EN"
 "http://www.w3.org/TR/2001/REC-SVG-20010904/DTD/svg10.dtd">
<svg version="1.0" xmlns="http://www.w3.org/2000/svg"
 width="830.000000pt" height="283.000000pt" viewBox="0 0 830.000000 283.000000"
 preserveAspectRatio="xMidYMid meet">

<g transform="translate(0.000000,283.000000) scale(0.100000,-0.100000)"
fill="#000000" stroke="none">
<path d="M1207 2240 c-16 -5 -35 -14 -42 -20 -8 -7 -18 -9 -24 -6 -11 7 -32
-49 -23 -60 4 -4 2 -4 -4 -1 -7 4 -14 -2 -17 -14 -3 -12 -10 -19 -14 -16 -5 3
-8 -10 -6 -30 1 -19 -2 -44 -8 -55 -9 -16 -8 -19 2 -13 9 6 10 3 5 -11 -11
-26 -13 -93 -3 -87 5 3 6 -15 2 -39 -7 -55 -6 -444 1 -523 6 -64 24 -115 49
-135 8 -7 12 -17 8 -24 -3 -6 -2 -8 2 -3 5 4 17 0 27 -10 28 -25 165 -31 223
-9 67 26 131 115 118 164 -2 11 0 23 6 26 15 9 14 59 -1 74 -7 7 -38 12 -70
12 l-58 0 -1 -40 c-2 -58 -3 -60 -19 -70 -12 -8 -12 -10 -1 -10 26 0 -7 -26
-49 -39 -47 -14 -76 -3 -90 35 -11 29 -15 651 -5 709 4 22 14 48 23 58 21 24
67 22 92 -5 11 -12 20 -18 20 -12 0 5 5 1 11 -9 5 -9 7 -22 3 -29 -5 -7 -3 -8
5 -3 9 5 12 -2 11 -26 -3 -58 -2 -59 43 -59 84 0 87 3 83 80 -6 131 -74 200
-206 206 -36 2 -78 -1 -93 -6z m263 -90 c0 -5 -4 -10 -10 -10 -5 0 -10 5 -10
10 0 6 5 10 10 10 6 0 10 -4 10 -10z m14 -35 c3 -8 1 -15 -3 -15 -5 0 -11 7
-15 15 -3 8 -1 15 3 15 5 0 11 -7 15 -15z m2 -49 c1 -14 -4 -27 -12 -30 -8 -3
-11 1 -8 10 2 7 6 21 9 29 6 21 10 19 11 -9z"/>
<path d="M5085 2243 c-16 -2 -35 -11 -42 -20 -6 -8 -17 -12 -23 -8 -6 4 -9 1
-8 -7 2 -7 -2 -12 -8 -11 -6 1 -10 -9 -8 -23 2 -19 -1 -24 -12 -20 -7 3 -13 2
-13 -2 3 -19 -2 -33 -10 -28 -5 3 -8 -2 -7 -12 0 -9 -5 -16 -12 -14 -8 1 -11
-2 -7 -8 3 -6 11 -8 16 -5 5 4 5 -4 -1 -19 -6 -16 -6 -28 0 -31 14 -8 0 -68
-19 -84 -15 -13 -15 -13 1 -8 9 3 19 0 22 -9 4 -10 2 -12 -6 -8 -7 5 -8 3 -3
-7 11 -17 14 -51 7 -63 -3 -5 -4 -118 -2 -250 4 -344 4 -344 15 -340 6 2 18
-8 28 -23 35 -52 66 -68 146 -72 82 -4 135 8 175 40 34 27 76 110 70 136 -3
12 -1 24 5 27 15 9 14 59 -1 74 -7 7 -38 12 -70 12 -63 0 -64 -2 -58 -77 1
-13 -3 -23 -9 -23 -6 0 -10 -6 -8 -12 1 -7 -4 -12 -11 -10 -8 1 -11 -2 -7 -8
9 -14 -61 -42 -86 -35 -47 15 -49 30 -50 391 -1 345 2 386 29 417 17 19 72 24
72 5 0 -6 3 -8 6 -5 13 13 42 -13 49 -45 18 -76 17 -88 -2 -81 -10 3 -15 3
-12 -1 10 -11 99 -18 131 -10 l28 6 -6 71 c-11 133 -75 197 -203 203 -36 1
-79 0 -96 -3z m265 -87 c0 -11 -19 -15 -25 -6 -3 5 1 10 9 10 9 0 16 -2 16 -4z
m14 -41 c3 -8 3 -15 0 -15 -3 0 -12 7 -20 15 -13 13 -13 15 -1 15 8 0 17 -7
21 -15z m2 -49 c1 -14 -4 -27 -12 -30 -8 -3 -11 1 -8 10 2 7 6 21 9 29 6 21
10 19 11 -9z"/>
<path d="M1818 2225 c-16 -9 -28 -12 -28 -8 0 4 -7 -2 -16 -13 -8 -10 -13 -12
-9 -4 4 8 -1 6 -9 -4 -9 -11 -16 -26 -16 -33 0 -7 -10 -22 -22 -34 -13 -12
-16 -18 -8 -14 12 7 13 6 3 -6 -10 -12 -12 -106 -11 -388 1 -204 5 -374 10
-377 4 -3 8 -14 8 -25 0 -35 44 -106 75 -122 17 -8 42 -20 57 -27 37 -17 134
-8 185 18 92 47 118 112 109 271 -7 137 -7 122 -1 300 10 263 -16 385 -93 433
-61 38 -193 56 -234 33z m129 -131 c4 -12 7 -13 14 -3 6 10 9 9 14 -6 4 -11
11 -28 15 -37 5 -9 10 -72 11 -140 2 -193 1 -210 -13 -202 -10 6 -9 3 0 -8 10
-12 13 -45 10 -116 -2 -55 1 -98 5 -95 9 5 0 -143 -9 -158 -10 -16 -77 -39
-96 -33 -28 9 -48 57 -48 118 0 32 -5 56 -11 58 -9 3 -9 13 0 39 14 43 14 430
0 467 -6 17 -6 29 1 36 5 5 10 22 10 37 0 47 81 83 97 43z m-102 -13 c-3 -6
-11 -8 -17 -5 -6 4 -5 9 3 15 16 10 23 4 14 -10z"/>
<path d="M1977 2009 c4 -13 8 -18 11 -10 2 7 -1 18 -6 23 -8 8 -9 4 -5 -13z"/>
<path d="M1972 1885 c0 -16 2 -22 5 -12 2 9 2 23 0 30 -3 6 -5 -1 -5 -18z"/>
<path d="M1971 1764 c0 -11 3 -14 6 -6 3 7 2 16 -1 19 -3 4 -6 -2 -5 -13z"/>
<path d="M1971 1514 c0 -11 3 -14 6 -6 3 7 2 16 -1 19 -3 4 -6 -2 -5 -13z"/>
<path d="M1972 1370 c0 -14 2 -19 5 -12 2 6 2 18 0 25 -3 6 -5 1 -5 -13z"/>
<path d="M6993 2221 c-23 -11 -46 -29 -53 -40 -6 -12 -18 -21 -28 -21 -15 0
-15 -2 -2 -10 13 -9 7 -14 -12 -11 -4 0 -5 -5 -2 -13 3 -8 0 -17 -7 -22 -8 -5
-10 -3 -4 6 5 9 4 11 -4 6 -6 -4 -8 -12 -5 -18 4 -5 7 -85 7 -176 0 -92 4
-175 9 -185 5 -9 6 -22 2 -28 -3 -6 -5 -88 -4 -182 3 -234 4 -246 14 -244 5 1
13 -11 19 -27 12 -37 55 -75 84 -76 12 0 25 -4 28 -10 8 -13 85 -13 139 1 56
14 114 62 137 113 15 33 19 66 19 163 0 82 -4 123 -11 125 -9 3 -9 13 0 41 15
45 14 371 -2 437 -23 103 -79 161 -167 174 -25 4 -61 9 -80 11 -23 4 -50 -1
-77 -14z m131 -117 c9 -3 13 -10 10 -15 -3 -5 3 -6 12 -2 14 5 16 3 11 -11 -4
-10 -3 -15 3 -11 6 3 10 3 11 -2 0 -4 2 -17 5 -28 8 -42 11 -235 3 -235 -5 0
-4 -11 1 -24 5 -13 7 -26 4 -29 -5 -5 -6 -168 0 -209 2 -18 -1 -25 -8 -21 -6
4 -5 -1 3 -11 16 -20 16 -138 -1 -169 -12 -23 -73 -50 -98 -42 -27 8 -50 66
-50 123 0 28 -4 53 -10 57 -5 3 -6 15 -1 28 13 35 21 267 12 317 -5 25 -6 50
-1 55 4 6 4 35 -1 65 -8 50 -6 84 8 133 7 27 54 44 87 31z m-99 -23 c-3 -6
-11 -8 -17 -5 -6 4 -5 9 3 15 16 10 23 4 14 -10z"/>
<path d="M7150 1900 c0 -5 5 -10 11 -10 5 0 7 5 4 10 -3 6 -8 10 -11 10 -2 0
-4 -4 -4 -10z"/>
<path d="M7152 1550 c0 -14 2 -19 5 -12 2 6 2 18 0 25 -3 6 -5 1 -5 -13z"/>
<path d="M2349 2226 c-2 -3 -1 -47 2 -98 4 -51 8 -184 8 -295 1 -159 -1 -203
-11 -203 -10 0 -10 -2 0 -9 11 -6 13 -53 12 -216 0 -114 -2 -212 -3 -219 -2
-13 101 -21 119 -9 8 6 14 110 19 342 5 219 11 328 17 317 5 -10 7 -24 4 -31
-3 -8 -1 -17 3 -20 8 -4 12 -19 27 -103 4 -17 1 -21 -8 -16 -8 5 -6 -2 4 -17
9 -14 19 -39 21 -55 3 -16 12 -65 21 -109 8 -44 18 -96 20 -115 12 -86 18
-117 27 -147 6 -18 8 -37 4 -43 -9 -14 78 -13 93 2 7 7 12 30 12 53 0 23 4 45
9 50 6 6 24 91 41 190 17 99 38 198 48 220 9 22 16 44 14 48 -1 5 1 19 5 31 6
18 8 15 14 -18 11 -66 11 -204 -1 -211 -5 -3 -10 -12 -10 -18 0 -7 4 -6 10 3
7 10 10 -13 10 -73 0 -68 -3 -86 -12 -81 -10 6 -10 4 -2 -7 7 -8 12 -53 13
-101 2 -80 1 -87 -16 -82 -15 5 -16 4 -3 -5 18 -13 119 -14 139 -2 12 8 13 67
7 393 -5 210 -7 438 -6 506 1 84 -2 127 -10 137 -14 16 -165 22 -174 7 -3 -5
-10 -37 -16 -73 -20 -116 -31 -183 -36 -219 -3 -19 -8 -42 -11 -50 -3 -8 -5
-19 -4 -24 1 -4 -5 -45 -14 -90 -8 -46 -15 -96 -15 -112 0 -28 -29 -122 -30
-96 0 6 1 13 3 15 1 2 -5 10 -14 19 -10 10 -37 122 -74 304 -32 159 -64 299
-72 312 -12 20 -21 22 -97 22 -45 0 -85 -2 -87 -4z m518 -408 c-3 -8 -6 -5 -6
6 -1 11 2 17 5 13 3 -3 4 -12 1 -19z m-393 -184 c3 -8 2 -12 -4 -9 -6 3 -10
10 -10 16 0 14 7 11 14 -7z"/>
<path d="M3240 2220 c-12 -8 -14 -70 -12 -449 1 -246 6 -450 11 -464 5 -14 7
-28 4 -31 -4 -3 -1 -6 5 -6 7 0 12 -7 12 -16 0 -9 -5 -12 -12 -8 -9 5 -9 3 1
-9 7 -9 17 -15 21 -12 5 3 17 -6 28 -20 11 -13 22 -22 24 -19 3 2 11 -2 18
-11 15 -18 133 -21 189 -4 41 12 103 54 66 44 -11 -3 -6 1 11 9 22 11 37 30
53 67 20 46 22 61 15 133 -4 45 -6 86 -5 91 2 6 3 81 2 169 -1 139 -3 160 -18
172 -17 13 -17 15 0 25 20 12 24 69 5 69 -10 0 -10 2 0 9 10 6 13 38 13 124
-1 64 -4 123 -7 132 -5 13 -19 15 -65 13 l-58 -3 -6 -150 c-3 -82 -6 -284 -6
-447 -1 -244 -3 -299 -15 -309 -8 -6 -14 -9 -14 -5 0 3 -9 -3 -20 -14 -45 -45
-95 -11 -105 72 -7 64 -12 608 -5 608 10 0 -2 225 -12 237 -12 15 -96 17 -118
3z m420 -221 c0 -5 -4 -9 -10 -9 -5 0 -10 7 -10 16 0 8 5 12 10 9 6 -3 10 -10
10 -16z m-16 -235 c3 -8 2 -12 -4 -9 -6 3 -10 10 -10 16 0 14 7 11 14 -7z m8
-156 c-9 -9 -12 -7 -12 12 0 19 3 21 12 12 9 -9 9 -15 0 -24z m-15 -320 c-3
-8 -6 -5 -6 6 -1 11 2 17 5 13 3 -3 4 -12 1 -19z"/>
<path d="M3896 2215 c-13 -14 -14 -69 -9 -448 4 -237 8 -459 9 -492 1 -33 3
-70 3 -83 1 -22 4 -23 64 -20 l62 3 3 310 c3 373 3 385 20 385 10 0 16 -31 15
-77 -1 -7 3 -13 8 -13 5 0 9 -10 9 -22 1 -13 14 -72 30 -133 15 -60 26 -113
24 -117 -3 -5 -1 -8 3 -8 5 0 10 -14 11 -30 1 -17 9 -49 17 -73 7 -23 16 -53
19 -67 3 -14 9 -40 15 -59 6 -18 10 -36 9 -40 -1 -3 2 -16 6 -29 7 -21 12 -23
79 -20 l72 3 2 504 c2 323 -1 510 -8 522 -8 15 -21 19 -64 19 l-55 0 -2 -132
c0 -73 -1 -214 0 -313 1 -116 -2 -173 -7 -160 -5 11 -10 35 -10 53 -1 17 -4
32 -9 32 -12 0 -29 48 -55 155 -31 125 -64 270 -72 313 -4 18 -15 37 -25 42
-30 16 -146 12 -164 -5z m394 -810 c10 -12 10 -15 -2 -15 -8 0 -15 7 -15 15 0
8 1 15 2 15 2 0 8 -7 15 -15z m48 -32 c-13 -12 -15 -11 -14 9 1 28 20 44 24
22 2 -9 -3 -23 -10 -31z"/>
<path d="M4589 2213 c-3 -66 -1 -173 4 -196 5 -25 4 -27 -10 -15 -15 12 -15
11 -5 -9 8 -15 12 -133 12 -400 -1 -208 1 -387 3 -398 3 -17 13 -20 65 -23 51
-2 62 0 71 16 13 24 12 999 -1 1025 -7 13 -22 17 -73 17 -55 0 -65 -3 -66 -17z
m125 -728 c3 -8 1 -15 -4 -15 -6 0 -10 7 -10 15 0 8 2 15 4 15 2 0 6 -7 10
-15z m16 -101 c0 -2 -7 -4 -15 -4 -8 0 -15 4 -15 10 0 5 7 7 15 4 8 -4 15 -8
15 -10z"/>
<path d="M5690 2228 c-1 -2 -3 -21 -6 -43 -3 -22 -17 -116 -31 -210 -13 -93
-26 -188 -28 -210 -2 -22 -7 -62 -11 -90 -3 -27 -8 -63 -10 -80 -2 -16 -11
-75 -19 -130 -9 -55 -20 -129 -26 -165 -6 -42 -17 -73 -32 -89 -12 -13 -17
-21 -11 -18 7 4 14 0 18 -8 4 -11 22 -15 70 -15 81 0 81 1 103 160 l17 120 68
0 c37 0 68 -4 68 -9 0 -5 9 -11 20 -14 17 -4 20 -14 20 -68 0 -34 5 -91 11
-126 l11 -63 64 0 c49 0 66 4 71 16 3 8 -27 223 -67 477 -39 254 -74 480 -77
502 -9 62 -14 65 -124 65 -55 0 -99 -1 -99 -2z m126 -289 c-3 -15 -2 -29 1
-33 4 -3 7 -16 9 -29 2 -24 12 -95 20 -142 3 -16 7 -52 9 -79 3 -27 7 -51 10
-54 2 -3 -3 -11 -13 -18 -22 -17 -112 -19 -112 -1 0 6 9 82 20 167 11 85 20
162 21 170 0 9 4 5 9 -7 5 -13 11 -23 12 -23 2 0 2 28 1 62 -2 52 -1 59 8 38
6 -14 8 -37 5 -51z m-56 -49 c0 -5 -4 -10 -10 -10 -5 0 -10 5 -10 10 0 6 5 10
10 10 6 0 10 -4 10 -10z"/>
<path d="M6238 1723 c-3 -415 -5 -507 -16 -505 -8 1 -11 -2 -7 -8 3 -6 11 -8
16 -4 5 3 9 2 8 -3 -5 -31 3 -33 129 -33 150 0 190 9 242 56 72 65 75 85 75
464 0 330 -6 429 -26 399 -7 -10 -8 -5 -3 14 5 24 0 34 -34 66 -52 50 -100 61
-256 61 l-126 0 -2 -507z m239 375 c20 -7 32 -17 29 -25 -3 -8 1 -10 11 -6 12
5 15 2 10 -10 -3 -9 -2 -17 3 -17 6 0 10 -124 10 -330 0 -289 -2 -334 -17
-365 -10 -21 -22 -34 -30 -31 -7 3 -15 1 -18 -4 -4 -6 -24 -10 -46 -10 -36 0
-39 2 -40 28 0 15 -1 119 -3 230 -2 151 -6 206 -16 212 -8 5 -9 9 -1 14 7 5
11 59 11 161 0 113 3 155 13 158 21 9 50 7 84 -5z m-112 -538 c3 -5 1 -10 -4
-10 -6 0 -11 5 -11 10 0 6 2 10 4 10 3 0 8 -4 11 -10z"/>
<path d="M6511 1484 c0 -11 3 -14 6 -6 3 7 2 16 -1 19 -3 4 -6 -2 -5 -13z"/>
<path d="M3859 2203 c-13 -16 -12 -17 4 -4 9 7 17 15 17 17 0 8 -8 3 -21 -13z"/>
<path d="M3191 2184 c0 -11 3 -14 6 -6 3 7 2 16 -1 19 -3 4 -6 -2 -5 -13z"/>
<path d="M3852 2130 c0 -14 2 -19 5 -12 2 6 2 18 0 25 -3 6 -5 1 -5 -13z"/>
<path d="M3853 1970 c0 -41 2 -58 4 -37 2 20 2 54 0 75 -2 20 -4 3 -4 -38z"/>
<path d="M2731 1924 c0 -11 3 -14 6 -6 3 7 2 16 -1 19 -3 4 -6 -2 -5 -13z"/>
<path d="M6852 1885 c0 -16 2 -22 5 -12 2 9 2 23 0 30 -3 6 -5 -1 -5 -18z"/>
<path d="M7740 1700 c-8 -5 -10 -10 -5 -10 6 0 17 5 25 10 8 5 11 10 5 10 -5
0 -17 -5 -25 -10z"/>
<path d="M1671 1684 c0 -11 3 -14 6 -6 3 7 2 16 -1 19 -3 4 -6 -2 -5 -13z"/>
<path d="M600 1675 c0 -7 30 -13 34 -7 3 4 -4 9 -15 9 -10 1 -19 0 -19 -2z"/>
<path d="M7780 1659 c0 -5 5 -7 10 -4 6 3 10 8 10 11 0 2 -4 4 -10 4 -5 0 -10
-5 -10 -11z"/>
<path d="M590 1628 c0 -4 4 -8 9 -8 6 0 12 4 15 8 3 5 -1 9 -9 9 -8 0 -15 -4
-15 -9z"/>
<path d="M5570 1569 c0 -5 5 -7 10 -4 6 3 10 8 10 11 0 2 -4 4 -10 4 -5 0 -10
-5 -10 -11z"/>
<path d="M1673 1435 c0 -22 2 -30 4 -17 2 12 2 30 0 40 -3 9 -5 -1 -4 -23z"/>
<path d="M4150 1350 c0 -5 5 -10 11 -10 5 0 7 5 4 10 -3 6 -8 10 -11 10 -2 0
-4 -4 -4 -10z"/>
<path d="M5876 1325 c-9 -26 -7 -32 5 -12 6 10 9 21 6 23 -2 3 -7 -2 -11 -11z"/>
<path d="M1061 1308 c-1 -9 4 -20 9 -23 6 -4 8 -10 5 -15 -3 -5 -1 -11 4 -14
11 -7 8 9 -7 44 -7 17 -11 20 -11 8z"/>
<path d="M6212 1290 c0 -19 2 -27 5 -17 2 9 2 25 0 35 -3 9 -5 1 -5 -18z"/>
<path d="M2853 1225 c0 -8 4 -12 9 -9 5 3 6 10 3 15 -9 13 -12 11 -12 -6z"/>
<path d="M4570 1200 c0 -5 5 -10 11 -10 5 0 7 5 4 10 -3 6 -8 10 -11 10 -2 0
-4 -4 -4 -10z"/>
<path d="M6945 962 c-55 -26 -65 -53 -65 -183 0 -162 26 -203 129 -203 66 0
106 19 125 59 19 40 21 212 3 264 -25 70 -114 99 -192 63z m122 -82 c17 -33
17 -190 0 -212 -21 -26 -75 -30 -99 -6 -18 18 -19 30 -16 124 3 117 9 126 68
122 25 -2 38 -10 47 -28z"/>
<path d="M7273 960 c-38 -23 -53 -48 -53 -88 0 -44 32 -77 110 -113 52 -23 72
-38 76 -56 10 -37 -13 -56 -60 -50 -35 5 -50 15 -59 42 -2 5 -16 -3 -32 -17
-29 -27 -29 -27 -9 -49 68 -75 194 -60 230 27 30 71 -8 126 -118 170 -57 24
-75 42 -65 68 10 25 93 22 109 -3 11 -19 13 -19 40 -3 34 20 34 23 6 49 -53
48 -120 57 -175 23z"/>
<path d="M2090 960 c-12 -7 -10 -9 7 -7 12 0 19 5 17 9 -6 10 -6 10 -24 -2z"/>
<path d="M6438 963 c-16 -4 -18 -22 -18 -199 l0 -194 35 0 35 0 -2 197 c-3
210 -3 209 -50 196z"/>
<path d="M6574 940 c3 -18 6 -109 6 -202 l0 -169 33 3 c31 3 32 4 35 56 2 42
6 52 21 52 17 0 51 -56 51 -85 0 -11 12 -15 40 -15 22 0 40 2 40 5 0 3 -12 27
-27 53 l-27 49 22 23 c27 29 36 74 30 146 -4 43 -11 61 -32 82 -24 24 -35 27
-113 31 l-86 3 7 -32z m140 -56 c18 -18 21 -85 6 -115 -7 -12 -21 -19 -40 -19
l-30 0 0 75 c0 73 1 75 24 75 14 0 32 -7 40 -16z"/>
<path d="M5833 940 c-22 -13 -35 -31 -43 -60 -14 -53 -3 -236 18 -271 26 -46
123 -64 182 -34 41 21 60 53 60 102 0 42 0 43 -35 43 -33 0 -35 -2 -35 -35 0
-40 -24 -58 -73 -53 -44 4 -57 35 -57 136 0 107 8 122 63 122 46 0 67 -13 67
-42 0 -14 8 -18 35 -18 29 0 35 4 35 20 0 29 -26 76 -52 94 -33 23 -125 21
-165 -4z"/>
<path d="M6130 765 l0 -195 105 0 105 0 0 35 0 35 -70 0 -70 0 0 50 0 50 55 0
c54 0 55 0 55 30 0 30 -1 30 -55 30 l-55 0 0 50 0 50 70 0 70 0 0 30 0 30
-105 0 -105 0 0 -195z"/>
<path d="M4876 942 c-2 -4 -3 -28 -1 -52 2 -25 4 -111 4 -192 l1 -148 35 0 35
0 0 55 c0 54 1 55 29 55 43 0 85 18 100 43 20 31 25 155 9 187 -20 38 -74 60
-145 60 -34 0 -64 -4 -67 -8z m144 -81 c5 -11 10 -36 10 -56 0 -52 -15 -75
-50 -75 l-30 0 0 75 0 75 30 0 c19 0 33 -7 40 -19z"/>
<path d="M5171 783 c-23 -93 -46 -180 -51 -195 -9 -27 -8 -28 31 -28 36 0 39
2 39 28 0 43 13 53 66 55 l48 2 10 -42 c8 -40 11 -43 42 -43 19 0 34 1 34 3 0
2 -22 84 -50 182 -27 98 -50 185 -50 192 0 8 -14 13 -39 13 l-38 0 -42 -167z
m95 -8 c21 -52 18 -65 -16 -65 -17 0 -30 5 -30 13 0 19 20 87 26 87 3 0 12
-16 20 -35z"/>
<path d="M3784 921 c-73 -33 -94 -93 -53 -146 12 -15 55 -43 95 -62 66 -32 74
-39 74 -64 0 -51 -61 -65 -103 -24 l-25 26 -28 -24 -28 -24 26 -26 c14 -14 44
-31 66 -38 112 -33 219 89 151 174 -11 15 -54 43 -95 62 -62 30 -74 39 -74 60
0 18 7 26 25 31 36 9 75 -3 83 -26 7 -19 8 -19 37 4 l30 24 -20 22 c-47 51
-95 61 -161 31z"/>
<path d="M4113 934 c-13 -3 -23 -10 -23 -15 0 -5 -7 -9 -15 -9 -26 0 -35 -46
-35 -170 0 -120 11 -170 37 -170 7 0 13 -4 13 -9 0 -5 20 -14 45 -19 48 -10
145 9 145 29 0 6 7 17 15 25 12 12 15 41 15 127 0 128 -10 176 -41 196 -23 14
-118 23 -156 15z m117 -83 c15 -29 12 -202 -4 -223 -20 -27 -92 -25 -107 3
-17 32 -8 217 11 229 28 18 88 12 100 -9z"/>
<path d="M4433 920 c-38 -23 -53 -48 -53 -88 0 -43 25 -68 110 -110 52 -26 76
-43 78 -57 3 -29 -10 -44 -45 -51 -26 -5 -37 -1 -59 21 l-27 27 -26 -27 -26
-26 32 -29 c61 -55 166 -48 204 13 52 84 31 131 -83 185 -83 39 -104 66 -72
89 26 19 57 16 87 -7 30 -24 36 -24 61 -5 19 15 19 16 -14 50 -30 31 -40 35
-84 35 -33 0 -62 -7 -83 -20z"/>
<path d="M5500 920 c0 -11 -4 -20 -10 -20 -12 0 -13 -81 -3 -233 l6 -107 29 0
c27 0 28 1 28 55 0 46 3 55 18 55 18 0 62 -68 62 -96 0 -10 12 -14 40 -14 l40
0 -25 50 c-30 60 -30 63 -4 99 17 23 21 42 20 97 -2 121 -13 133 -123 134 -71
0 -78 -2 -78 -20z m128 -45 c9 -9 13 -109 5 -122 -4 -6 -25 -14 -46 -18 l-37
-7 0 82 0 83 36 -6 c20 -3 39 -9 42 -12z"/>
<path d="M3098 914 c-46 -24 -58 -61 -58 -176 0 -179 22 -213 140 -213 86 0
126 26 135 88 9 57 -2 242 -15 267 -25 47 -142 67 -202 34z m125 -71 c10 -12
18 -47 22 -103 8 -112 -3 -134 -66 -138 -40 -3 -47 0 -56 21 -17 38 -15 187 2
214 19 28 74 31 98 6z"/>
<path d="M3443 913 c-38 -19 -66 -72 -57 -107 8 -35 51 -70 122 -102 62 -27
63 -29 60 -63 -3 -34 -5 -36 -44 -39 -35 -3 -45 1 -61 22 l-20 25 -24 -25
c-28 -30 -20 -48 31 -76 93 -49 200 9 200 109 0 49 -53 94 -157 133 -27 10
-33 18 -33 41 0 27 3 29 39 29 49 0 71 -8 71 -26 0 -19 10 -17 39 5 20 15 22
21 12 39 -26 49 -115 66 -178 35z"/>
<path d="M2728 723 c2 -109 5 -199 6 -199 0 -1 15 0 31 3 l30 4 -3 79 c-5 123
8 130 57 29 22 -47 41 -91 41 -97 0 -7 15 -12 38 -12 l37 0 -3 195 -3 195 -34
0 -35 0 0 -96 c0 -60 -4 -93 -10 -89 -9 5 -59 107 -81 163 -6 17 -17 22 -42
22 l-33 0 4 -197z"/>
<path d="M1237 904 c-10 -10 3 -32 28 -48 15 -10 26 -12 30 -6 4 6 1 9 -6 8
-7 -2 -13 4 -14 12 0 8 -7 15 -15 15 -8 1 -14 6 -12 13 2 13 -1 15 -11 6z"/>
<path d="M1626 897 c3 -10 9 -15 12 -12 3 3 0 11 -7 18 -10 9 -11 8 -5 -6z"/>
<path d="M1169 898 c-5 -9 -5 -48 -1 -43 6 6 11 45 5 45 -2 0 -4 -1 -4 -2z"/>
<path d="M1781 897 c2 -1 13 -9 24 -17 19 -14 19 -14 6 3 -7 9 -18 17 -24 17
-6 0 -8 -1 -6 -3z"/>
<path d="M1085 861 c-3 -5 -2 -12 3 -15 5 -3 9 1 9 9 0 17 -3 19 -12 6z"/>
<path d="M1576 858 c3 -5 10 -6 15 -3 13 9 11 12 -6 12 -8 0 -12 -4 -9 -9z"/>
<path d="M1215 840 c-3 -6 1 -7 9 -4 18 7 21 14 7 14 -6 0 -13 -4 -16 -10z"/>
<path d="M2116 837 c3 -10 9 -15 12 -12 3 3 0 11 -7 18 -10 9 -11 8 -5 -6z"/>
<path d="M1043 821 c0 -11 5 -18 9 -15 4 3 5 11 1 19 -7 21 -12 19 -10 -4z"/>
<path d="M1180 821 c0 -6 4 -13 10 -16 6 -3 7 1 4 9 -7 18 -14 21 -14 7z"/>
<path d="M2041 804 c0 -11 3 -14 6 -6 3 7 2 16 -1 19 -3 4 -6 -2 -5 -13z"/>
<path d="M2094 809 c-3 -6 -2 -15 3 -20 5 -5 9 -1 9 11 0 23 -2 24 -12 9z"/>
<path d="M2016 797 c3 -10 9 -15 12 -12 3 3 0 11 -7 18 -10 9 -11 8 -5 -6z"/>
<path d="M2556 802 c-3 -5 1 -9 9 -9 8 0 12 4 9 9 -3 4 -7 8 -9 8 -2 0 -6 -4
-9 -8z"/>
<path d="M1051 786 c-18 -21 7 -33 25 -12 8 9 9 11 2 6 -19 -15 -32 -12 -18 5
7 8 10 15 7 15 -2 0 -10 -6 -16 -14z"/>
<path d="M1689 763 c-13 -16 -12 -17 4 -4 16 13 21 21 13 21 -2 0 -10 -8 -17
-17z"/>
<path d="M1730 746 c0 -2 8 -10 18 -17 15 -13 16 -12 3 4 -13 16 -21 21 -21
13z"/>
<path d="M1630 719 c-7 -11 -10 -23 -7 -25 2 -2 9 7 15 21 14 30 7 33 -8 4z"/>
<path d="M1710 731 c0 -5 7 -12 16 -15 14 -5 15 -4 4 9 -14 17 -20 19 -20 6z"/>
<path d="M2537 725 c-8 -8 -18 -11 -22 -7 -5 4 -5 1 -1 -6 6 -11 12 -10 27 4
10 9 19 19 19 21 0 7 -9 2 -23 -12z"/>
<path d="M1696 705 c4 -8 11 -15 16 -15 6 0 5 6 -2 15 -7 8 -14 15 -16 15 -2
0 -1 -7 2 -15z"/>
<path d="M1126 693 c-6 -14 -5 -15 5 -6 7 7 10 15 7 18 -3 3 -9 -2 -12 -12z"/>
<path d="M1650 706 c0 -2 8 -10 18 -17 15 -13 16 -12 3 4 -13 16 -21 21 -21
13z"/>
<path d="M1150 686 c0 -8 4 -17 9 -20 5 -4 7 3 4 14 -6 23 -13 26 -13 6z"/>
<path d="M1725 680 c-3 -6 1 -7 9 -4 18 7 21 14 7 14 -6 0 -13 -4 -16 -10z"/>
<path d="M1740 653 c5 -2 8 -9 5 -13 -3 -5 -1 -11 4 -14 5 -4 8 2 7 11 -2 9
-8 18 -15 19 -6 1 -7 0 -1 -3z"/>
<path d="M2387 649 c7 -7 15 -10 18 -7 3 3 -2 9 -12 12 -14 6 -15 5 -6 -5z"/>
<path d="M1487 635 c-4 -8 -3 -16 1 -19 4 -3 9 4 9 15 2 23 -3 25 -10 4z"/>
<path d="M1286 573 c-6 -14 -5 -15 5 -6 7 7 10 15 7 18 -3 3 -9 -2 -12 -12z"/>
<path d="M1625 550 c3 -5 8 -10 11 -10 2 0 4 5 4 10 0 6 -5 10 -11 10 -5 0 -7
-4 -4 -10z"/>
<path d="M1376 537 c-16 -12 -16 -13 3 -13 11 0 18 3 15 7 -2 4 2 10 8 12 7 3
8 6 2 6 -5 1 -18 -5 -28 -12z"/>
<path d="M1616 522 c-3 -5 1 -9 9 -9 8 0 12 4 9 9 -3 4 -7 8 -9 8 -2 0 -6 -4
-9 -8z"/>
<path d="M1573 488 c3 -9 1 -18 -5 -20 -6 -2 -4 -9 5 -16 12 -10 17 -10 23 -1
5 8 3 9 -6 4 -9 -6 -12 -4 -8 7 4 8 2 21 -4 29 -8 11 -9 11 -5 -3z"/>
<path d="M2123 475 c0 -8 4 -15 9 -15 4 0 8 4 8 9 0 6 -4 12 -8 15 -5 3 -9 -1
-9 -9z"/>
<path d="M2185 480 c-3 -5 -1 -10 4 -10 6 0 11 5 11 10 0 6 -2 10 -4 10 -3 0
-8 -4 -11 -10z"/>
<path d="M2083 434 c0 -10 4 -11 13 -3 8 7 14 6 17 -1 3 -6 5 -6 3 1 -3 17
-33 20 -33 3z"/>
<path d="M2106 317 c3 -10 9 -15 12 -12 3 3 0 11 -7 18 -10 9 -11 8 -5 -6z"/>
<path d="M2210 296 c0 -2 8 -10 18 -17 15 -13 16 -12 3 4 -13 16 -21 21 -21
13z"/>
<path d="M2157 239 c12 -12 24 -21 27 -18 2 2 -8 13 -22 23 l-27 19 22 -24z"/>
</g>
</svg>
